<svg stroke-miterlimit="10" style="fill-rule:nonzero;clip-rule:evenodd;stroke-linecap:round;stroke-linejoin:round" viewBox="0 0 1024 1024" xml:space="preserve" xmlns="http://www.w3.org/2000/svg"><defs><linearGradient gradientTransform="translate(-212.282 -212.282) scale(1.41461)" gradientUnits="userSpaceOnUse" id="a" x1="323.481" x2="796.406" y1="390.941" y2="735.854"><stop offset="0" stop-color="#37a5ff"/><stop offset="1" stop-color="#f02aea"/></linearGradient><linearGradient gradientTransform="translate(-212.282 -209.453) scale(1.41461)" gradientUnits="userSpaceOnUse" id="b" x1="227.594" x2="760.245" y1="286.146" y2="735.382"><stop offset="0" stop-color="#37a5ff"/><stop offset="1" stop-color="#f02aea"/></linearGradient></defs><g fill="#fff"><path d="m522.843 534.32-203.868-14.034-209.3-324.954L511.767 0l126.062 365.39-114.986 168.93Z"/><path d="M501.157 489.68 386.171 658.61 512.233 1024l402.092-195.332-209.3-324.954-203.868-14.034Z"/></g><path d="m493.858 482.381-82.117-5.652-82.117-5.653-84.305-130.89 290.393-141.07 50.778 147.177-46.316 68.044-46.316 68.044Z" fill="url(#a)"/><path d="m488.147 827.772 50.821 147.305 162.101-78.747 162.101-78.747-84.378-131.003-290.645 141.192Z" fill="url(#b)"/></svg>